<?xml version="1.0" encoding="UTF-8"?>
<svg enable-background="new 0 0 224 410" viewBox="0 0 224 410" xmlns="http://www.w3.org/2000/svg">
 <defs>
  <linearGradient id="l" x2="0" y1="13.75" y2="403.75" gradientUnits="userSpaceOnUse">
   <stop stop-color="#fff" offset="0"/>
   <stop stop-color="#b3b3b3" offset="1"/>
  </linearGradient>
  <linearGradient id="j" x1="130.39" x2="162.75" gradientUnits="userSpaceOnUse">
   <stop stop-color="#080807" offset="0"/>
   <stop stop-color="#0a0b0a" offset=".1721"/>
   <stop stop-color="#101510" offset=".3879"/>
   <stop stop-color="#172215" offset=".6271"/>
   <stop stop-color="#1e361a" offset=".8815"/>
   <stop stop-color="#22421b" offset="1"/>
  </linearGradient>
  <linearGradient id="h" x1="83.636" x2="80.136" y1="190.81" y2="286.31" gradientUnits="userSpaceOnUse">
   <stop stop-color="#94a55b" offset=".1264"/>
   <stop stop-color="#567d4b" offset=".5549"/>
   <stop stop-color="#132f11" offset=".9011"/>
  </linearGradient>
  <linearGradient id="g" x1="66.711" x2="162.75" gradientUnits="userSpaceOnUse">
   <stop stop-color="#080807" offset="0"/>
   <stop stop-color="#0a0b09" offset=".2189"/>
   <stop stop-color="#0e110d" offset=".4135"/>
   <stop stop-color="#131b13" offset=".5989"/>
   <stop stop-color="#192917" offset=".7785"/>
   <stop stop-color="#203c1b" offset=".9525"/>
   <stop stop-color="#22421b" offset="1"/>
  </linearGradient>
  <linearGradient id="f" x1="90.658" x2="92.825" y1="120.5" y2="76.996" gradientUnits="userSpaceOnUse">
   <stop stop-color="#864819" offset="0"/>
   <stop stop-color="#7d431a" offset=".1504"/>
   <stop stop-color="#64351a" offset=".4243"/>
   <stop stop-color="#3f2115" offset=".7882"/>
   <stop stop-color="#29140e" offset="1"/>
  </linearGradient>
  <linearGradient id="e" x1="86.218" x2="139.89" gradientUnits="userSpaceOnUse">
   <stop stop-color="#864819" offset=".0769"/>
   <stop stop-color="#91531d" offset=".0993"/>
   <stop stop-color="#af732c" offset=".14"/>
   <stop stop-color="#e6af51" offset=".1942"/>
   <stop stop-color="#f8c35f" offset=".2088"/>
   <stop stop-color="#f1bd5d" offset=".2146"/>
   <stop stop-color="#9d713d" offset=".2994"/>
   <stop stop-color="#664127" offset=".3756"/>
   <stop stop-color="#432619" offset=".4404"/>
   <stop stop-color="#2f1811" offset=".4913"/>
   <stop stop-color="#29140e" offset=".522"/>
   <stop stop-color="#462516" offset=".5943"/>
   <stop stop-color="#68371b" offset=".681"/>
   <stop stop-color="#7e441a" offset=".7477"/>
   <stop stop-color="#864819" offset=".7857"/>
   <stop stop-color="#8e501a" offset=".824"/>
   <stop stop-color="#a7661e" offset=".8825"/>
   <stop stop-color="#d38f29" offset=".9534"/>
   <stop stop-color="#f8b334" offset="1"/>
  </linearGradient>
  <linearGradient id="d" x1="91.083" x2="133.08" gradientUnits="userSpaceOnUse">
   <stop stop-color="#864819" offset=".0055"/>
   <stop stop-color="#91531d" offset=".0409"/>
   <stop stop-color="#af732c" offset=".1054"/>
   <stop stop-color="#e6af51" offset=".1911"/>
   <stop stop-color="#f8c35f" offset=".2143"/>
   <stop stop-color="#29140e" offset=".5165"/>
   <stop stop-color="#462516" offset=".6475"/>
   <stop stop-color="#68371b" offset=".8047"/>
   <stop stop-color="#7e441a" offset=".9255"/>
   <stop stop-color="#864819" offset=".9945"/>
  </linearGradient>
  <linearGradient id="c" x1="91.562" x2="132.6" gradientUnits="userSpaceOnUse">
   <stop stop-color="#381d13" offset="0"/>
   <stop stop-color="#864819" offset=".1868"/>
   <stop stop-color="#79411a" offset=".2191"/>
   <stop stop-color="#552d19" offset=".318"/>
   <stop stop-color="#3c1f14" offset=".405"/>
   <stop stop-color="#2e1710" offset=".476"/>
   <stop stop-color="#29140e" offset=".522"/>
   <stop stop-color="#2b150f" offset=".6076"/>
   <stop stop-color="#331a11" offset=".691"/>
   <stop stop-color="#402115" offset=".7735"/>
   <stop stop-color="#542c19" offset=".8555"/>
   <stop stop-color="#6d3a1b" offset=".9363"/>
   <stop stop-color="#864819" offset="1"/>
  </linearGradient>
  <linearGradient id="s" x1="75.157" x2="149.01" gradientUnits="userSpaceOnUse">
   <stop stop-color="#eebc8e" offset="0"/>
   <stop stop-color="#e18c43" offset="1"/>
  </linearGradient>
  <linearGradient id="r" x1="93.706" x2="130.48" gradientUnits="userSpaceOnUse">
   <stop stop-color="#eebc8e" offset="0"/>
   <stop stop-color="#e18c43" offset="1"/>
  </linearGradient>
  <linearGradient id="q" x1="61.163" x2="162.84" gradientUnits="userSpaceOnUse">
   <stop stop-color="#eebc8e" offset="0"/>
   <stop stop-color="#e18c43" offset="1"/>
  </linearGradient>
  <linearGradient id="p" x1="62.79" x2="161.21" gradientUnits="userSpaceOnUse">
   <stop stop-color="#d09865" offset="0"/>
   <stop stop-color="#864819" offset="1"/>
  </linearGradient>
  <linearGradient id="o" x1="64.979" x2="158.34" gradientUnits="userSpaceOnUse">
   <stop stop-color="#864819" offset="0"/>
   <stop stop-color="#29140e" offset="1"/>
  </linearGradient>
  <linearGradient id="n" x1="100.48" x2="124.38" gradientUnits="userSpaceOnUse">
   <stop stop-color="#864819" offset="0"/>
   <stop stop-color="#29140e" offset="1"/>
  </linearGradient>
  <linearGradient id="m" x1="99.354" x2="127.17" gradientUnits="userSpaceOnUse">
   <stop stop-color="#864819" offset="0"/>
   <stop stop-color="#29140e" offset="1"/>
  </linearGradient>
  <linearGradient id="b" x1="107.29" x2="116.17" gradientUnits="userSpaceOnUse">
   <stop stop-color="#f0c582" offset="0"/>
   <stop stop-color="#864819" offset=".1484"/>
   <stop stop-color="#91531d" offset=".1688"/>
   <stop stop-color="#af732c" offset=".2062"/>
   <stop stop-color="#e6af51" offset=".2558"/>
   <stop stop-color="#f8c35f" offset=".2692"/>
   <stop stop-color="#29140e" offset=".522"/>
   <stop stop-color="#462516" offset=".5943"/>
   <stop stop-color="#68371b" offset=".681"/>
   <stop stop-color="#7e441a" offset=".7477"/>
   <stop stop-color="#864819" offset=".7857"/>
  </linearGradient>
  <linearGradient id="a" x1="107.44" x2="116.03" gradientUnits="userSpaceOnUse">
   <stop stop-color="#f0c582" offset="0"/>
   <stop stop-color="#864819" offset=".1484"/>
   <stop stop-color="#91531d" offset=".1688"/>
   <stop stop-color="#af732c" offset=".2062"/>
   <stop stop-color="#e6af51" offset=".2558"/>
   <stop stop-color="#f8c35f" offset=".2692"/>
   <stop stop-color="#29140e" offset=".522"/>
   <stop stop-color="#462516" offset=".5943"/>
   <stop stop-color="#68371b" offset=".681"/>
   <stop stop-color="#7e441a" offset=".7477"/>
   <stop stop-color="#864819" offset=".7857"/>
  </linearGradient>
  <linearGradient id="k" x1="104.62" x2="118.71" gradientUnits="userSpaceOnUse">
   <stop stop-color="#86c3e7" offset="0"/>
   <stop stop-color="#7fbee3" offset=".1844"/>
   <stop stop-color="#6aafd7" offset=".4099"/>
   <stop stop-color="#4699c5" offset=".6568"/>
   <stop stop-color="#007dad" offset=".9174"/>
   <stop stop-color="#0074a5" offset="1"/>
  </linearGradient>
  <radialGradient id="i" cx="104.33" cy="213" r="70.036" gradientUnits="userSpaceOnUse">
   <stop stop-color="#22421b" offset="0"/>
   <stop stop-color="#213f1b" offset=".1743"/>
   <stop stop-color="#1e361a" offset=".3875"/>
   <stop stop-color="#192817" offset=".621"/>
   <stop stop-color="#101610" offset=".8673"/>
   <stop stop-color="#080807" offset="1"/>
  </radialGradient>
 </defs>
 <path d="m0 0h224v410h-224z" fill="url(#l)"/>
 <path d="m84.281,161.211c-2.923,10.93-6.003,18.539-8.864,27.123-5,15-14,42-14,66v124.666c0,10.904 2.072,14.394 5.294,15.773v-116.4c0-26.227 1.405-44.958 12.177-84.765 2.724-10.064 5.177-21.355 7.33-32.738-.653.11-1.299.223-1.937.341z"/>
 <path d="m140.24 217.02c1.404 6.089 5.151 66.034 5.151 78.21v53.767h17.36v-94.666c0-24-9-51-14-66-2.858-8.576-5.935-16.177-8.855-27.09-3.006-0.56-6.184-1.031-9.505-1.404 0.651 8.802 1.292 15.212 1.887 17.846 3.279 14.517 6.558 33.248 7.962 39.337z" fill="url(#j)"/>
 <path d="m140.237,217.024c-1.404-6.089-4.684-24.82-7.962-39.338-.595-2.634-1.235-9.044-1.887-17.846-3.61-.406-7.386-.695-11.287-.855-2.327-.096-4.694-.15-7.102-.15-3.739,0-7.39.122-10.925.348-5.253.336-10.238.912-14.857,1.688-2.153,11.383-4.606,22.674-7.33,32.738-10.771,39.807-12.177,58.539-12.177,84.765v70.626h78.678v-53.767c.001-12.175-3.746-72.12-5.151-78.209z" fill="url(#i)"/>
 <path d="m78.888,193.608c-10.771,39.807-12.177,58.539-12.177,84.765v78.094c8.255,1.689 16.729,3.039 24.353,3.534 0-25.556 4.539-54.034 0-61.958-10.73-18.732 2.81-81.02 4.215-91.322 .462-3.39 1.433-10.894 2.541-19.875-6.365.315-12.288.835-17.565,1.522-.449,1.778-.904,3.528-1.367,5.24z" fill="url(#h)"/>
 <path d="m112.292,397.625-.209-.001-.209.001h.418zm-45.581-48.625v45.773c1.111.476 2.358.702 3.706.894 2.271.322 10.968.913 20.646,1.362 7.209.334 14.964.589 21.02.595 4.918-.005 10.957-.174 16.914-.416 5.945-.242 11.806-.557 16.392-.854 4.073-.264 7.143-.514 8.36-.687 5.254-.745 9-2.001 9-16.667v-30h-96.038z" fill="url(#g)"/>
 <path d="m96.684,86.832c.109-1.855.04-5.973-.13-11.257-1.053.145-2.062.299-2.981.471 .06.064.104.142.167.204 0,7 1.011,21.083-3.322,53.083-1.854,13.687-3.951,23.708-6.136,31.877 .638-.118 1.284-.231 1.937-.341 6.365-33.641 10.114-68.089 10.465-74.037z" fill="url(#f)"/>
 <path d="m133.749,129.333c-4.333-32-3.322-46.083-3.322-53.083 .062-.062.107-.14.167-.204-1.355-.253-2.88-.475-4.515-.667-2.171-.256-4.56-.453-7.109-.581-2.196-.111-4.498-.175-6.887-.175-2.424,0-4.758.066-6.982.18-3.131.16-6.015.425-8.547.773 .17,5.284.239,9.402.13,11.257-.351,5.948-4.1,40.396-10.466,74.038 4.619-.776 9.604-1.352 14.857-1.688 3.535-.226 7.186-.348 10.925-.348 2.407,0 4.774.055 7.102.15 3.901.16 7.677.449 11.287.855 3.321.374 6.499.845 9.505,1.404-2.189-8.175-4.29-18.205-6.145-31.911z" fill="url(#e)"/>
 <path d="m68.126 381 22.947 0.916s2.865 9.517 7.027 10.184c4.215 0.676 24.942 2.419 24.942 2.419l-0.319 0.679s-31.651-1.553-36.334-1.553-18.263 0-18.263-12.645z" fill="#46424e"/>
 <path d="m91.083 173c0-11.387 9.402-20.618 21-20.618s21 9.231 21 20.618 1.333 20.618-21 20.618c-21.333 0-21-9.231-21-20.618z" fill="none" stroke="#e2001a" stroke-width=".7089"/>
 <path d="m91.083 173c0-11.387 9.402-20.618 21-20.618s21 9.231 21 20.618 1.333 20.618-21 20.618c-21.333 0-21-9.231-21-20.618z" fill="none" stroke="#e2001a" stroke-width=".7089"/>
 <path d="m132.604,71.725c.391-1.84.479-3.857.479-5.725v-27.333s-2.285-8.018-7.229-9.578c-2.286-.722-5.715-1.685-13.771-1.755-8.057.071-11.485,1.034-13.771,1.755-4.943,1.561-7.229,7.578-7.229,9.578s0,23.667 0,27.333c0,1.868.088,3.885.479,5.725 4.741-1.123 12.167-1.847 20.521-1.847s15.78.724 20.521,1.847z" fill="url(#d)"/>
 <path d="m130.594,76.046c1.033-1.129 1.654-2.645 2.011-4.321-4.741-1.123-12.167-1.847-20.521-1.847s-15.78.724-20.521,1.847c.356,1.676.978,3.191 2.011,4.321 4.705-.878 11.259-1.424 18.511-1.424s13.804.545 18.509,1.424z" fill="url(#c)"/>
 <path d="m130.015,75.95c1.001-1.094 1.603-2.562 1.948-4.186-4.593-1.088-11.787-1.789-19.88-1.789s-15.287.701-19.88,1.789c.346,1.623.947,3.091 1.948,4.186 4.558-.851 10.906-1.379 17.932-1.379s13.374.528 17.932,1.379z" fill="none" stroke="#29140e" stroke-dasharray="1" stroke-width=".5"/>
 <path d="m148.75,188.334c-2.663-7.99-5.516-15.13-8.256-24.895-.202-.721-.403-1.461-.604-2.212-3.005-.557-6.182-1.026-9.5-1.397-.787-.088-1.581-.171-2.384-.248-3.851-4.4-9.549-7.198-15.922-7.198s-12.071,2.798-15.922,7.198c-3.467.333-6.792.77-9.945,1.302-.654.11-1.3.225-1.938.343-.137.51-.273,1.012-.41,1.507-2.799,10.125-5.724,17.42-8.45,25.6l-.261.783c1.622-.267 3.32-.518 5.098-.75 4.001-.521 8.375-.945 13.031-1.257 2.466,4.004 7.693,6.509 18.798,6.509 11.604,0 16.811-2.496 19.144-6.487 1.057.072 2.098.151 3.124.235 5.373.438 10.307,1.032 14.659,1.75l-.262-.783z" fill="url(#s)" stroke="#864819" stroke-width=".7089"/>
 <path d="m92.277,166.201c-2.527.309-4.97.675-7.31,1.095-.872.156-1.729.321-2.572.492-1.629,5.322-3.281,9.924-4.896,14.507 1.403-.207 2.858-.402 4.363-.583 2.981-.36 6.15-.668 9.478-.918-.273-2.404-.257-5.034-.257-7.792 .001-2.387.435-4.669 1.194-6.801z" fill="none" stroke="#864819" stroke-width=".5"/>
 <path d="m131.891,166.201c.76,2.132 1.193,4.414 1.193,6.801 0,2.753.075,5.378-.122,7.779l.005.022c4.954.375 9.558.879 13.701,1.491-1.614-4.583-3.267-9.186-4.896-14.507-3.106-.628-6.412-1.161-9.881-1.586z" fill="none" stroke="#864819" stroke-width=".5"/>
 <path d="m76.046,186.471c9.766-1.542 22.329-2.471 36.037-2.471s26.272.928 36.038,2.471" fill="none" stroke="#864819" stroke-width=".6114"/>
 <path d="m83.78,163.049c8.297-1.567 17.937-2.464 28.22-2.464 10.356,0 20.059.91 28.396,2.498" fill="none" stroke="#864819" stroke-width=".8015"/>
 <path d="m93.706 173c0-9.965 8.229-18.044 18.378-18.044s18.378 8.079 18.378 18.044 1.167 18.044-18.378 18.044c-18.67 0-18.378-8.079-18.378-18.044z" fill="url(#r)" stroke="#864819" stroke-width=".6204"/>
 <path d="m112,379.16c4.263,0 42.607-1.075 45.987-1.256s3.526-2.328 3.526-4.479 1.323-41.232 1.323-47.326-2.646-10.448-4.85-12.598-18.154-15.454-27.334-19.287c-6.102-2.55-14.096-4.214-18.652-4.214s-12.55,1.663-18.653,4.213c-9.18,3.833-25.13,17.136-27.334,19.287s-4.85,6.505-4.85,12.598 1.323,45.177 1.323,47.326 .146,4.3 3.526,4.479 41.725,1.257 45.988,1.257z" fill="url(#q)"/>
 <path d="m112,375.664c4.263,0 42.607-.991 45.987-1.157s3.526-2.148 3.526-4.133 1.323-38.04 1.323-43.661-2.646-7.77-4.85-9.753-18.154-16.126-27.334-19.663c-6.104-2.352-14.098-4.629-18.653-4.629s-12.55,2.277-18.653,4.629c-9.18,3.537-25.13,17.679-27.334,19.663s-4.85,4.132-4.85,9.753 1.323,41.678 1.323,43.661 .146,3.967 3.526,4.133 41.726,1.157 45.989,1.157z" fill="none" stroke="#864819" stroke-width=".6699"/>
 <path d="m112,369.42c4.126,0 41.243-.854 44.516-.996s3.414-1.849 3.414-3.556 1.28-31.011 1.28-35.848-2.561-6.686-4.694-8.393-21.195-14.651-26.459-17.781-13.648-4.266-18.057-4.266-12.793,1.138-18.057,4.268-24.325,16.074-26.459,17.781-4.694,3.556-4.694,8.393 1.28,34.141 1.28,35.848 .142,3.413 3.414,3.556 40.39.994 44.516.994z" fill="url(#p)" stroke="#864819"/>
 <path d="m144.213,175.285-.097-.282-.058.282h.155z" fill="#864819"/>
 <path d="m78.969,178.379v-.217l-.014-.005-.077.222h.091z" fill="#864819"/>
 <path d="m79.658,177.084c.379.984.933,1.477 1.661,1.477 .254,0 .485-.057.693-.17s.418-.291.631-.533v-2.432c0-.426.019-.711.056-.855 .055-.203.153-.305.298-.305h.07v-.223h-1.461v.223c.151,0 .258.032.318.097s.104.158.134.281 .043.384.043.782v2.297c-.121.145-.246.254-.376.328s-.264.111-.403.111c-.237,0-.469-.146-.694-.437s-.407-.749-.547-1.374c-.069-.313-.121-.643-.156-.989l-.409,1.188c.048.177.079.369.142.534z" fill="#864819"/>
 <path d="m82.148,171.348c.156.316.283.787.382,1.412h.097l-.097-2.508h-.104c-.005.199-.021.333-.046.401s-.055.103-.09.103-.105-.041-.209-.123c-.206-.16-.365-.264-.478-.311h-.004c-.04.125-.08.249-.12.374 .264.071.489.284.669.652z" fill="#864819"/>
 <path d="m85.869,170.65h.131c.148,0 .257.082.325.246 .052.121.078.426.078.914v4.582l-2.307-5.959h-1.024v.217c.109,0 .191.018.245.053 .109.074.192.154.249.24s.14.264.249.533v5.525c0,.445-.021.73-.062.855-.066.203-.181.305-.342.305h-.131v.217h1.313v-.217h-.134c-.146,0-.255-.082-.325-.246-.051-.121-.075-.426-.075-.914v-4.893l2.487,6.398h.101v-6.697c0-.445.02-.73.061-.855 .067-.203.18-.305.34-.305h.134v-.217h-1.313v.218z" fill="#864819"/>
 <path d="m90.148,177.482c-.089.184-.182.307-.278.369s-.252.094-.465.094h-.64c-.104,0-.175-.022-.212-.067s-.062-.105-.078-.182c-.015-.076-.021-.29-.021-.642v-2.619h.829c.157,0 .274.039.351.117s.131.186.164.322c.025.109.052.357.078.744h.103v-2.766h-.103c-.012.453-.065.77-.162.949-.072.137-.216.205-.431.205h-.829v-3.141h1.034c.188,0 .318.029.393.088 .093.082.163.201.21.357s.091.443.13.861h.108l-.042-1.74h-2.907v.217h.133c.156,0 .268.078.334.234 .049.117.072.428.072.932v5.162c0,.387-.011.643-.031.768s-.062.219-.121.281c-.08.09-.164.135-.254.135h-.133v.217h2.907l.326-1.992h-.111c-.121.49-.238.855-.354,1.097z" fill="#864819"/>
 <path d="m137.809,177.714c-.188.221-.403.331-.648.331-.282,0-.533-.141-.753-.422s-.384-.686-.493-1.213-.164-1.15-.164-1.869c0-.871.058-1.6.174-2.186s.274-1.013.477-1.28 .429-.401.68-.401c.298,0 .554.178.768.533 .213.355.377.938.492,1.746h.087l-.087-2.701h-.097c-.021.188-.056.334-.104.439-.037.074-.081.111-.131.111-.033,0-.089-.043-.167-.129-.265-.281-.534-.422-.807-.422-.351,0-.674.183-.97.548s-.528.88-.697,1.544-.253,1.393-.253,2.186c0,.984.128,1.84.384,2.566 .343.977.827,1.465 1.452,1.465 .348,0 .646-.164.899-.492s.473-.846.662-1.553l-.086-.117c-.225.657-.431,1.095-.618,1.316z" fill="#864819"/>
 <path d="m142.709,170.434h-.109c.023.073.047.145.069.217h.04v-.217z" fill="#864819"/>
 <path d="m141.095,170.434v.217h.134c.089,0 .173.047.253.141 .06.07.099.154.117.252 .023.129.036.396.036.803v2.273h-1.753v-2.273c0-.391.011-.649.033-.776s.062-.222.119-.284c.08-.09.164-.135.254-.135h.136v-.217h-1.616v.217h.133c.09,0 .175.047.257.141 .057.07.095.154.113.252 .024.129.037.396.037.803v5.127c0,.477-.022.777-.067.902-.07.191-.184.287-.34.287h-.133v.217h1.616v-.217h-.136c-.09,0-.174-.047-.254-.141-.06-.07-.098-.154-.116-.252-.024-.129-.036-.395-.036-.797v-2.42h1.753v2.42c0,.477-.023.777-.07.902-.07.191-.183.287-.336.287h-.134v.217h1.614v-.217h-.134c-.089,0-.175-.047-.256-.141-.058-.07-.096-.154-.114-.252-.024-.129-.036-.395-.036-.797v-5.127c0-.391.011-.649.032-.776s.062-.222.12-.284c.08-.09.165-.135.254-.135h.094l-.069-.217h-1.505z" fill="#864819"/>
 <path d="m144.059,175.285 .058-.282-.165-.481-.46,2.269c-.115.574-.22.955-.314,1.143-.046.094-.148.17-.306.229v.217h1.188v-.217c-.182-.027-.3-.087-.354-.179s-.082-.198-.082-.319c0-.152.031-.383.095-.691l.256-1.254h.389c-.05-.144-.1-.289-.148-.434h-.157z" fill="#864819"/>
 <path d="m124.75 45.723-1.824 2.643-1.825-2.643 1.825-2.643z" fill="#c6a549"/>
 <path d="m126.99 48.893-1.824 2.643-1.825-2.643 1.825-2.643z" fill="#c6a549"/>
 <path d="m125.02 53.072-1.825 2.643-1.825-2.643 1.825-2.643z" fill="#c6a549"/>
 <path d="m127.81 56.055-1.826 2.644-1.824-2.644 1.824-2.643z" fill="#c6a549"/>
 <path d="m126.43 41.621-1.825 2.643-1.824-2.643 1.824-2.643z" fill="#c6a549"/>
 <path d="m95.268 49.237-1.722 2.502-1.742-2.515 1.723-2.502z" fill="#eecf91"/>
 <path d="m97.402 52.254-1.721 2.501-1.743-2.514 1.723-2.503z" fill="#eecf91"/>
 <path d="m95.544 56.213-1.722 2.502-1.741-2.515 1.723-2.502z" fill="#eecf91"/>
 <path d="m98.209 59.054-1.723 2.502-1.74-2.515 1.722-2.502z" fill="#eecf91"/>
 <path d="m96.846 45.35-1.723 2.502-1.74-2.515 1.721-2.502z" fill="#eecf91"/>
 <path d="m156.8,331.587c-2.14-4.89-7.365-7.378-11.342-7.154 .799-2.306-.149-5.107-3.359-6.285-4.525-1.66-8.668.551-10.762,1.727-2.257,1.27-5.569,3.694-7.404,4.769-1.083.634-4.537,2.682-7.655,1.341-2.058-.884-2.727-2.929-1.69-4.527 .451.258.982.486 1.606.672 3.126.934 7.584.383 9.403-2.439 .853-1.324.226-2.73-2.186-2.73-3.188,0-6.345,1.277-8.675,3.922l-.138.178c-1.736-.922-2.056-2.596-1.785-3.79 .405-1.79 2.143-2.253 3.172-1.77 .142.065.21-.022.083-.095-1.011-.563-3.017,0-3.475,1.78-.363,1.412.026,3.045 1.815,4.161-.833,1.427-.795,3.857 1.701,4.9 3.219,1.346 7.304-.116 8.904-1.23 1.122-.781 4.015-2.663 7.463-4.968 3.297-2.203 6.128-3.019 9.729-1.635 2.602,1 3.656,3.803 2.605,6.084-1.87.258-3.383,1.165-4.03,2.768-2.312.322-4.984-.436-4.826-3.348 .026-.466-.188-.301-.218-.065-.371,2.82 2.265,4.142 4.857,3.993-.964,3.878 4.456,6.081 7.118,3.233 .183-.223.024-.212-.122-.076-2.411,2.237-7.633.758-6.638-3.187 1.146-.126 2.256-.54 3.063-1.244 .613-.536 1.065-1.195 1.353-1.907 3.542-.297 8.253,1.812 10.655,7.133 2.355,5.212 1.105,13.275-4.161,17.438-.216-2.001-1.22-3.846-2.878-5.092-.226-.17-.47-.319-.724-.455-.057-1.555-.946-3.115-2.862-3.882-.169-.068-.491.003-.145.13 1.79.64 2.641,2.137 2.752,3.624-3.253-1.537-8.241-.471-7.485,2.831 .421,1.838 3.471,2.909 6.209.738 .952-.753 1.485-1.919 1.531-3.12 .142.075.278.155.407.244 1.677,1.161 2.706,3.132 2.825,5.278-10.102,7.389-21.153,2.94-22.486-3.243-.6-2.776 1.747-3.783 2.828-3.783 2.71,0 3.485,1.684 3.142,3.019-.062.241.063.241.083.111 .681-2.636-1.852-3.538-3.266-3.482-2.992.117-4.891,3.271-1.748,7.264 3.811,4.839 13.155,6.214 21.435,1.113-.389,5.024-5.834,10.47-19.687,8.684-5.491-.706-13.188-3.5-20.137-3.5s-14.645,2.794-20.138,3.5c-13.851,1.786-19.297-3.659-19.686-8.684 8.279,5.101 17.625,3.726 21.435-1.113 3.143-3.992 1.247-7.146-1.749-7.264-1.413-.056-3.944.847-3.265,3.482 .021.13.146.13.083-.111-.344-1.335.432-3.019 3.142-3.019 1.081,0 3.428,1.007 2.829,3.783-1.334,6.184-12.385,10.632-22.487,3.243 .119-2.146 1.149-4.117 2.825-5.278 .129-.089.267-.169.408-.244 .044,1.201.579,2.367 1.53,3.12 2.738,2.171 5.79,1.1 6.209-.738 .756-3.302-4.231-4.368-7.485-2.831 .113-1.487.962-2.984 2.752-3.624 .348-.127.025-.198-.144-.13-1.918.767-2.804,2.327-2.862,3.882-.254.136-.498.285-.724.455-1.659,1.246-2.663,3.091-2.879,5.092-5.267-4.162-6.517-12.226-4.162-17.438 2.404-5.32 7.114-7.43 10.657-7.133 .286.712.738,1.371 1.353,1.907 .808.704 1.916,1.118 3.063,1.244 .995,3.944-4.227,5.424-6.638,3.187-.147-.136-.306-.146-.124.076 2.663,2.848 8.083.645 7.119-3.233 2.594.148 5.228-1.173 4.858-3.993-.03-.235-.245-.4-.218.065 .158,2.912-2.516,3.67-4.826,3.348-.648-1.603-2.161-2.51-4.03-2.768-1.051-2.281.003-5.084 2.604-6.084 3.601-1.384 6.433-.568 9.729,1.635 3.449,2.305 6.341,4.187 7.465,4.968 1.598,1.114 5.684,2.576 8.903,1.23 2.495-1.043 2.535-3.474 1.7-4.9 1.791-1.116 2.179-2.749 1.815-4.161-.458-1.78-2.463-2.344-3.474-1.78-.128.072-.057.16.083.095 1.028-.483 2.767-.021 3.172,1.77 .271,1.194-.05,2.868-1.785,3.79l-.139-.178c-2.33-2.645-5.485-3.922-8.675-3.922-2.41,0-3.037,1.406-2.184,2.73 1.817,2.822 6.276,3.373 9.401,2.439 .625-.186 1.155-.414 1.606-.672 1.036,1.599.367,3.644-1.689,4.527-3.12,1.341-6.572-.707-7.654-1.341-1.835-1.074-5.148-3.499-7.407-4.769-2.091-1.176-6.234-3.387-10.759-1.727-3.212,1.178-4.159,3.979-3.361,6.285-3.976-.224-9.201,2.265-11.341,7.154-3.455,7.898-.774,14.924 4.89,18.666 .148,5.33 5.886,11.236 19.863,9.924 4.659-.437 14.813-4.023 20.388-4.023s15.73,3.587 20.387,4.023c13.978,1.312 19.717-4.594 19.863-9.924 5.671-3.742 8.353-10.767 4.898-18.666zm-33.829-14.406c2.628-.145 4.116,1.303.899,3.514-1.784,1.226-5.517,1.706-8.559.673-.183-.062-.352-.134-.511-.209 1.763-2.323 5.092-3.806 8.171-3.978zm20.349,9.148c-.527.396-1.301.704-2.151.87 .587-1.307 1.887-2.153 3.52-2.448-.313.579-.761,1.12-1.369,1.578zm3.428,20.518c-2.646,2.094-5.736,1.033-5.861-.616-.209-2.72 4.438-3.582 7.136-2.34 .001,1.175-.452,2.303-1.275,2.956zm-64.316-.616c-.126,1.649-3.218,2.71-5.862.616-.823-.653-1.276-1.781-1.275-2.956 2.696-1.242 7.344-.38 7.137,2.34zm17.015-25.536c-3.217-2.211-1.729-3.658.899-3.514 3.079.172 6.407,1.655 8.17,3.978-.16.075-.327.147-.512.209-3.041,1.033-6.774.552-8.557-.673zm-17.301,6.504c-.849-.166-1.622-.474-2.149-.87-.607-.458-1.056-.999-1.369-1.578 1.631.294 2.933,1.141 3.518,2.448z" fill="url(#o)"/>
 <path d="m118.221,301.616c-.245-.286-1.356-.575-1.936-.628-.372-.034-.695-.236-.929-.39-.362-.236-.692-.123-.717-.091s-.126.438.018.672 .143.37.087.516c-.097.339-.828.695-.926.841s-.29.387-.048.483c.06.024-.024.062-.107.132-.086.074-.643.787-.666.945-.025.157-.135.157.133.181s.048-.011.181-.011 .17.022.072.145-.46.398-.532.798c-.03.17-.036.193.158.242l.291.072c.096.023.12.121.022.182s-.527.685-2.043.907c-1.572.229-2.371-.13-3.748-.448-1.268-.292-1.914-.259-2.831.29-.121.072-.354.229-.629.048-2.975-1.934-.411-3.506 1.307-2.998 0,0 .934.233 1.403.482 2.684,1.428 4.011,1.639 5.151.653 1.064-.918 0-1.982-.098-2.056-.476-.356-1.209-.218-1.378-.628s-.217-.968-1.04-.968c-.362,0-.436.193-.436.193s.242.241.266.604c.019.271.188,1.095 1.186,1.016 1.523-.12 1.677,1.008 1.33,1.354-.438.439-.924.739-1.886.436-.92-.29-1.742-1.233-2.178-1.716-.126-.142-.266-.146-.145.072s.054.09.078.155-.006.195-.181.048c-.176-.143-.781-.657-.895-.7-.116-.042-.177-.055-.049.097s.133.151.175.225 .042.157-.145.035-.646-.573-1.591-.743c-.139-.024-.404.023-.169.17 .049.03.085.041.114.091s.043.158-.181.097c-.109-.031-.678-.286-1.626-.135-.164.026-.311.172-.031.219 .109.019.048.019.145.042 .113.029.129.146-.041.134-.589-.044-.921.033-1.295.38-.085.079-.258.286.107.219 .164-.03.147,0 .249.012s.066.12-.079.193c-.409.205-.531.35-.676.726-.144.369.069.239.199.127 .092-.078.139-.115.211-.127s.23-.018.115.194c.012-.021-.43.488-.417.835 .006.174.019.325.176.192s.338-.169.404.023c.184.533.781,1.332 1.18,1.507 .193.084.157.097.254.157s.218.217.013.398c-.424.373-.484.973-.484,1.706 0,.403.061,1.584-.678,1.668-.145.018-.401-.024-.531,0-.642.121-.46.543-.46.678 0,.133-.012.193-.182.325-.169.135-.329.246-.399.363-.068.114-.14.283-.14.283s.128-.053.29-.022c.085.015.091.006.031.079s-.381.489-.454.621c-.056.105-.11.267-.11.267s.095-.013.16-.023 .021-.047.06.023c.046.082-.079.344-.079.344s.073-.008.158-.059c.061-.036.316-.194.29.097-.013.133-.387,1.306.835,1.125 .622-.094 1.644-.025 1.789-.037s.497-.265.062-.593-.908-.192-1.029-.242c-.206-.082-.624-.276-.351-.761 .109-.194.375-.871.303-1.112s1.229-.307 1.814-.774c.061-.049.556.302 2.394-.956 .109.362.858.46 1.04,1.088 .066.229.145.662-.241.63-.291-.025-.834.314.012.883-.145.205-.411.448-.061.931 .044.06.229.096.229.096s-.028-.098-.011-.24c.024-.206.218-.061.254.012s.267.46.448.521c.167.055.363.158.41-.073s.197-.369.363-.109c.085.135.072.787 1.04.665 .232-.028 1.016-.035 1.306-.24 .29-.207.532-.363-.096-.763-.281-.178-.497-.181-.835-.145s-.388.097-.641-.218c-.255-.315-.654-.738-.822-.858s-.351-.642.12-.944 1.668-.942.593-1.971c.92.785 3.568,2.21 5.588.666 .205-.158.484.293.506.567 .05.58-.104,1.062.038,1.354 .064.133.235.252.235.252s.019-.208.079-.337c.097-.205.327-.338.291.12s.097.51.156.582c.038.044.184.111.184.111s-.014-.096-.014-.173c0-.205.06-.313.181-.144 .066.094.196.487.422.71 .075.076.217.187.217.187s.024-.072.079-.21c.072-.182.214-.288.322-.106s.157.798.291.919 .086.241 1.076.303c.193.012 1.826-.038 1.971-.11 .199-.1.312-.311-.013-.688-.217-.255-.41-.399-.967-.412-.218-.004-.338-.011-.521-.253s-1.91-2.625-2.007-2.71c.097-.144.614-.371.847-.446 .447-.146 1.151-.766 1.295-.907 .048-.048.276-.073.192.218-.024.082-.03.232-.03.232s.069-.003.163-.087c.218-.193.157-.146.242-.23s.181-.048.17.048c-.005.039.012.072.012.072s.066-.015.132-.096c.109-.134.424-.593.46-.689s.23-.206.194.072c-.02.146.017.239.017.239s.092-.04.188-.154c.205-.242.277-.762.277-1.016 0-.255.099-.375.268-.278 .483.278 1.173.157 1.269.036s.072,0 .085.024 .037.146.169-.049c.134-.193.086-.098.193-.12s.073-.037.109-.157 .221-1.895-2.165-.786c-.338.157-1.766,1.04-1.958,1.101s-.924.217-1.282.145-.63-.145-.726-.145c.012-.268.061-1.282-.327-1.838-.1-.145-.12-.363.146-.255s.521.387.797-.339c.065-.167.03-.022.05-.169s-.012-.266-.05-.351c-.034-.085-.083-.049-.132.013-.107.134-.55-.033-.181-.219 .456-.228.732.236.857.375 .061.067.641.834 1.271.521 .141-.072.253-.212.338-.23 .158-.036.229-.136.037-.156-.109-.013-.472.133-.544.168s-.496-.012-.679-.253c-.144-.193-.543-.979-1.391-.763-.114.029-.627-.169-.192-.387 .096-.048.436-.048.52.17 .073.189.635.272.786,0 .061-.109.447-.738.314-1.138-.031-.094-.327-.097-.411-.108s-.556-.29-.967-.29c-.146,0-.194-.072-.279-.146-.084-.072-.133-.169-.023-.193 .112-.027.125-.148.052-.233z" fill="url(#n)"/>
 <path d="m119.996,164.382c-.286-.334-1.579-.67-2.253-.731-.432-.041-.81-.275-1.081-.454-.422-.275-.806-.143-.834-.105s-.146.51.021.782 .166.431.102.6c-.112.394-.963.809-1.077.979s-.338.449-.056.563c.068.028-.027.07-.126.153-.1.085-.747.916-.774,1.1s-.157.183.153.211 .057-.013.212-.013c.154,0 .198.026.084.168s-.535.464-.619.929c-.037.198-.043.226.184.282l.337.084c.112.028.141.142.027.212s-.613.797-2.378,1.056c-1.829.268-2.76-.15-4.362-.521-1.474-.34-2.228-.302-3.295.338-.14.083-.411.265-.731.056-3.463-2.251-.479-4.081 1.521-3.49 0,0 1.088.272 1.633.562 3.125,1.661 4.668,1.907 5.996.76 1.239-1.069 0-2.307-.113-2.393-.555-.415-1.408-.253-1.604-.731s-.253-1.126-1.211-1.126c-.422,0-.507.225-.507.225s.281.281.31.704c.021.314.217,1.274 1.38,1.182 1.772-.141 1.95,1.173 1.548,1.576-.51.511-1.076.861-2.195.507-1.069-.337-2.027-1.436-2.534-1.997-.147-.164-.31-.17-.168.083s.062.106.091.182-.007.227-.211.056-.908-.766-1.041-.815c-.135-.049-.205-.064-.057.112s.154.176.204.262c.048.084.048.183-.169.042s-.752-.667-1.851-.865c-.161-.029-.471.027-.197.198 .058.035.098.048.133.105s.049.185-.211.112c-.127-.036-.788-.333-1.892-.156-.19.031-.362.2-.037.255 .128.021.057.021.169.048 .132.035.149.169-.049.156-.685-.05-1.071.039-1.505.442-.1.092-.302.333.124.255 .191-.035.172,0 .29.013s.077.14-.092.226c-.477.239-.619.407-.788.845-.166.429.081.278.232.146 .106-.09.161-.133.246-.146 .085-.015.269-.021.134.226 .014-.026-.5.568-.484.971 .007.203.021.379.203.224 .183-.154.394-.196.472.028 .213.62.908,1.549 1.373,1.753 .224.097.183.112.295.183s.253.252.015.463c-.493.435-.562,1.133-.562,1.985 0,.47.069,1.844-.79,1.942-.167.02-.467-.028-.619,0-.746.141-.535.632-.535.788s-.014.226-.211.379c-.197.156-.382.286-.465.423-.079.132-.162.33-.162.33s.148-.062.338-.027c.099.018.105.007.037.092s-.444.57-.529.723c-.065.123-.128.31-.128.31s.109-.015.185-.027 .024-.054.07.027c.054.096-.092.401-.092.401s.085-.009.184-.068c.071-.043.367-.227.338.112-.015.155-.45,1.52.971,1.309 .725-.108 1.914-.029 2.084-.043s.577-.308.07-.69-1.057-.224-1.197-.281c-.24-.096-.727-.322-.408-.886 .127-.226.437-1.013.353-1.294-.085-.282 1.43-.357 2.111-.901 .07-.058.647.351 2.786-1.113 .126.421.999.535 1.211,1.266 .077.266.168.77-.281.733-.338-.03-.971.365.014,1.027-.168.239-.479.522-.07,1.084 .051.069.265.11.265.11s-.031-.114-.011-.278c.027-.241.252-.071.294.013 .044.085.312.535.522.605 .195.064.423.185.478-.085 .057-.267.229-.43.422-.126 .1.156.085.916 1.211.774 .271-.033 1.183-.042 1.521-.28s.619-.423-.113-.887c-.326-.207-.577-.211-.971-.168-.395.041-.451.112-.746-.254-.296-.367-.761-.859-.957-.999s-.407-.746.141-1.098 1.94-1.097.69-2.294c1.07.914 4.151,2.572 6.501.775 .24-.184.565.341.591.661 .057.675-.121,1.236.044,1.576 .074.155.273.293.273.293s.021-.243.093-.392c.112-.239.38-.394.339.14-.045.535.111.592.181.676 .045.052.214.129.214.129s-.016-.11-.016-.2c0-.239.069-.366.211-.168 .077.109.229.567.49.828 .087.088.253.216.253.216s.028-.084.092-.245c.084-.211.248-.335.376-.124s.182.929.338,1.07 .101.28 1.252.352c.226.014 2.125-.044 2.295-.128 .231-.116.362-.362-.016-.802-.253-.296-.479-.465-1.125-.479-.254-.005-.394-.013-.605-.295s-2.224-3.055-2.336-3.153c.112-.168.714-.433.985-.521 .52-.169 1.34-.89 1.507-1.056 .056-.056.321-.085.224.253-.028.097-.035.271-.035.271s.081-.004.19-.102c.254-.225.183-.169.282-.268s.21-.056.197.056c-.006.045.014.084.014.084s.077-.018.153-.112c.127-.155.493-.689.535-.802s.269-.24.227.084c-.023.17.02.279.02.279s.106-.047.219-.18c.238-.281.322-.886.322-1.182s.114-.437.312-.323c.562.323 1.365.183 1.478.042s.084,0 .099.028 .042.169.195-.057c.156-.225.101-.113.226-.14s.086-.043.128-.183 .257-2.204-2.521-.915c-.393.182-2.055,1.21-2.278,1.281-.226.07-1.075.252-1.492.168s-.732-.168-.845-.168c.013-.311.07-1.492-.381-2.139-.116-.168-.14-.423.17-.296s.605.45.928-.395c.076-.193.034-.025.057-.196s-.013-.31-.057-.409-.098-.056-.153.015c-.126.156-.642-.039-.211-.253 .53-.266.853.275.998.437 .07.077.746.97 1.478.606 .164-.084.296-.247.395-.269 .184-.042.267-.159.043-.183-.127-.015-.549.155-.633.196-.086.042-.577-.014-.79-.295-.167-.224-.632-1.14-1.619-.888-.133.035-.729-.196-.224-.45 .112-.056.507-.056.604.197 .085.221.738.318.916,0 .069-.126.52-.859.365-1.324-.036-.109-.381-.114-.478-.127s-.647-.337-1.127-.337c-.169,0-.225-.084-.324-.169-.098-.084-.154-.196-.028-.225 .119-.03.133-.171.048-.269z" fill="url(#m)"/>
 <path d="m65.566,360.246h1.401v.187l-.871,6.621h-.216l.78-6.006h-.719c-.146,0-.249.044-.311.133-.108.15-.195.384-.261.698l-.056-.054 .253-1.579z" fill="#29140e"/>
 <path d="m68.858,360.246-.15.836h-.787l-.172.896c.341.128.61.451.81.969 .172.446.257.971.257,1.574 0,.351-.027.676-.084.974s-.126.553-.211.763-.18.379-.283.507c-.148.18-.3.271-.455.271s-.271-.068-.343-.204-.106-.286-.106-.45c0-.092.015-.173.044-.243s.066-.106.111-.106c.034,0 .063.014.088.04 .025.026.068.093.129.201 .096.171.193.256.293.256 .15,0 .282-.146.396-.436s.17-.644.17-1.06c0-.403-.051-.78-.152-1.129s-.241-.619-.42-.81c-.141-.147-.331-.232-.573-.256l.502-2.592h.936z" fill="#29140e"/>
 <path d="m70.742,365.204c-.048.594-.141,1.051-.28,1.37s-.292.479-.461.479c-.2,0-.375-.215-.524-.645s-.224-1.01-.224-1.741c0-.708.083-1.284.248-1.727s.363-.664.595-.664c.174,0 .316.117.429.352s.167.479.167.73c0,.125-.016.226-.047.303s-.075.115-.132.115c-.076,0-.133-.062-.172-.187-.021-.069-.036-.2-.043-.394s-.033-.341-.078-.442-.107-.148-.188-.148c-.129,0-.232.122-.311.364-.104.321-.156.746-.156,1.274 0,.538.052,1.013.155,1.424s.243.617.42.617c.126,0 .239-.109.339-.329 .071-.151.14-.425.207-.821l.056.07z" fill="#29140e"/>
 <path d="m71.602,359.92v5.977c0,.282.009.47.024.562s.041.161.074.209 .096.071.188.071v.177h-.866v-.177c.081,0 .137-.021.166-.064s.053-.113.069-.211 .025-.287.025-.566v-4.093c0-.508-.005-.82-.014-.937s-.023-.196-.044-.238-.045-.064-.076-.064-.075.026-.127.079l-.033-.173 .527-.551h.087z" fill="#29140e"/>
 <path d="m146.289,363.956c.288.088.503.229.646.421 .197.269.297.598.297.986 0,.295-.065.578-.196.848s-.31.468-.537.592-.575.187-1.043.187h-1.959v-.162h.156c.173,0 .298-.079.373-.236 .047-.103.07-.32.07-.653v-3.84c0-.368-.029-.6-.089-.696-.079-.129-.198-.193-.354-.193h-.156v-.162h1.794c.335,0 .604.035.806.105 .306.105.539.291.701.559s.241.575.241.923c0,.298-.063.564-.189.8-.127.232-.314.407-.561.521zm-1.604-.237c.075.021.162.036.259.046s.204.016.32.016c.298,0 .521-.046.672-.139s.265-.232.345-.423 .119-.397.119-.622c0-.348-.099-.645-.297-.89s-.487-.368-.867-.368c-.204,0-.388.032-.551.097v2.283zm0,2.84c.237.079.471.118.701.118 .369,0 .651-.119.845-.356s.291-.533.291-.884c0-.23-.044-.452-.131-.666s-.231-.381-.429-.504-.443-.185-.735-.185c-.127,0-.234.003-.324.009s-.162.017-.218.031v2.437z" fill="#29140e"/>
 <path d="m151.812,366.989h-1.108l-1.405-2.778c-.104.006-.188.009-.254.009l-.086-.003-.095-.006v1.727c0,.374.028.606.086.696 .077.129.193.193.349.193h.162v.162h-1.778v-.162h.156c.175,0 .301-.082.376-.245 .043-.091.064-.306.064-.645v-3.84c0-.374-.028-.605-.086-.696-.079-.129-.197-.193-.354-.193h-.156v-.162h1.513c.44,0 .766.046.975.139s.387.261.533.508 .219.542.219.884c0,.365-.083.682-.25.95s-.424.459-.772.57l.857,1.705c.195.392.364.651.505.78s.324.21.551.245v.162zm-2.948-3.055 .101.002 .071.002c.396,0 .694-.122.896-.368s.301-.558.301-.938c0-.371-.081-.673-.243-.905s-.377-.349-.645-.349c-.118,0-.278.028-.48.084v2.472z" fill="#29140e"/>
 <path d="m154.749,361.208v-.162h1.47v.162h-.156c-.163,0-.289.099-.376.294-.043.091-.064.301-.064.631v2.411c0,.596-.042,1.059-.124,1.387s-.245.611-.487.846-.57.354-.987.354c-.453,0-.797-.113-1.031-.338s-.401-.527-.5-.907c-.064-.26-.098-.748-.098-1.464v-2.323c0-.365-.035-.604-.105-.719s-.185-.171-.342-.171h-.156v-.162h1.795v.162h-.159c-.172,0-.294.078-.367.232-.052.105-.077.324-.077.657v2.591c0,.23.015.495.045.793s.083.53.16.697 .189.304.336.412 .324.162.537.162c.271,0 .515-.085.729-.255s.36-.386.439-.65c.078-.265.118-.712.118-1.344v-2.406c0-.371-.029-.603-.086-.696-.08-.129-.198-.193-.355-.193h-.159z" fill="#29140e"/>
 <path d="m159.914,361.045 .046,1.394h-.116c-.022-.245-.053-.42-.092-.525-.063-.17-.147-.294-.252-.375s-.244-.12-.415-.12h-.585v4.54c0,.365.027.594.083.684 .077.123.196.185.357.185h.145v.162h-1.761v-.162h.146c.176,0 .301-.076.374-.228 .045-.094.067-.308.067-.641v-4.54h-.499c-.194,0-.332.021-.413.062-.106.055-.197.162-.273.319-.075.158-.12.371-.134.64h-.117l.05-1.394h3.389z" fill="#29140e"/>
 <path d="m98.305,372.334v.782c0,.169.019.274.055.315 .051.058.126.087.229.087h.103v.073h-1.15v-.073h.101c.114,0 .195-.037.244-.111 .026-.04.039-.138.039-.291v-1.734c0-.169-.018-.273-.053-.314-.052-.059-.129-.088-.23-.088h-.103v-.073h.984c.24,0 .43.025.568.075s.255.133.351.25 .143.257.143.418c0,.219-.072.397-.218.534-.145.138-.349.206-.612.206l-.21-.014s-.156-.023-.241-.042zm0-.112 .186.029c.055.007.101.01.139.01 .138,0 .256-.053.355-.159s.149-.244.149-.413c0-.116-.023-.224-.071-.323s-.114-.175-.202-.224-.186-.074-.297-.074c-.067,0-.153.013-.259.037v1.117z" fill="#29140e"/>
 <path d="m100.386,371.725v.408c.152-.272.308-.408.468-.408 .072,0 .133.022.18.066s.071.096.071.153c0,.052-.017.095-.051.131-.035.035-.076.054-.123.054s-.099-.023-.155-.068-.101-.068-.128-.068c-.023,0-.05.013-.077.039-.06.055-.121.144-.185.268v.869c0,.101.013.177.038.228 .017.036.047.065.091.09s.106.035.188.035v.071h-.929v-.071c.092,0 .161-.015.206-.044 .032-.021.056-.055.068-.101 .007-.022.011-.087.011-.192v-.703c0-.211-.005-.337-.014-.377s-.024-.069-.047-.088-.052-.027-.086-.027c-.041,0-.088.01-.139.029l-.021-.071 .549-.222h.085z" fill="#29140e"/>
 <path d="m102.092,371.725c.274,0 .495.104.661.312 .142.179.212.383.212.614 0,.162-.039.326-.116.493s-.186.292-.322.376-.288.127-.456.127c-.273,0-.49-.109-.651-.327-.136-.184-.204-.39-.204-.617 0-.167.041-.332.124-.496 .082-.165.19-.286.325-.364 .134-.079.276-.118.427-.118zm-.062.129c-.069,0-.14.021-.211.062s-.127.114-.171.219c-.044.104-.065.238-.065.401 0,.265.053.492.157.684 .105.191.243.287.415.287 .128,0 .233-.053.316-.158s.125-.287.125-.545c0-.322-.069-.575-.208-.761-.093-.126-.212-.189-.358-.189z" fill="#29140e"/>
 <path d="m104.515,373.388c-.089.093-.175.159-.26.199-.084.04-.176.061-.273.061-.198,0-.371-.083-.519-.249s-.222-.378-.222-.639 .082-.498.245-.714 .375-.323.632-.323c.16,0 .292.051.396.152v-.335c0-.207-.005-.334-.016-.382s-.025-.08-.046-.097-.048-.026-.079-.026-.08.011-.137.032l-.026-.069 .541-.222h.089v2.097c0,.213.005.342.015.389s.026.08.048.099 .047.027.076.027c.036,0 .083-.011.143-.033l.021.069-.538.224h-.091v-.26zm0-.138v-.935c-.008-.09-.032-.172-.071-.245s-.093-.13-.158-.168c-.064-.037-.129-.056-.19-.056-.116,0-.22.052-.312.156-.12.137-.18.338-.18.602 0,.267.058.471.174.613s.246.213.389.213c.119,0 .235-.06.348-.18z" fill="#29140e"/>
 <path d="m106.851,371.779v1.099c0,.21.005.338.015.385s.026.08.048.099 .047.027.076.027c.041,0 .087-.011.139-.033l.027.069-.542.224h-.09v-.385c-.155.169-.274.275-.356.319s-.168.065-.259.065c-.102,0-.19-.029-.265-.088-.074-.06-.126-.135-.155-.228s-.044-.223-.044-.392v-.81c0-.086-.009-.146-.027-.179s-.046-.059-.082-.076-.103-.026-.197-.024v-.073h.636v1.214c0,.169.029.279.088.332s.13.079.213.079c.057,0 .121-.018.193-.053s.157-.104.256-.204v-1.028c0-.103-.019-.172-.056-.209s-.116-.056-.235-.058v-.073h.617z" fill="#29140e"/>
 <path d="m108.828,372.903c-.049.239-.145.423-.287.552s-.3.193-.473.193c-.206,0-.386-.087-.539-.26s-.229-.406-.229-.701c0-.285.085-.517.254-.694s.374-.268.611-.268c.179,0 .325.047.439.142 .115.095.173.192.173.294 0,.05-.017.091-.049.122s-.078.046-.136.046c-.078,0-.137-.024-.176-.075-.022-.027-.038-.08-.045-.158s-.034-.137-.08-.178-.11-.06-.192-.06c-.132,0-.238.049-.318.146-.107.129-.161.3-.161.513 0,.217.054.407.16.573s.249.248.431.248c.129,0 .245-.044.349-.132 .072-.062.143-.171.211-.331l.057.028z" fill="#29140e"/>
 <path d="m109.615,371.182v.597h.424v.139h-.424v1.176c0,.117.017.196.051.237s.077.062.13.062c.043,0 .086-.014.126-.04s.073-.067.096-.12h.077c-.047.129-.111.227-.196.292-.084.065-.172.098-.262.098-.061,0-.12-.017-.178-.05s-.101-.082-.129-.145-.041-.16-.041-.29v-1.22h-.287v-.065c.072-.029.146-.078.223-.147 .075-.069.144-.152.203-.247 .03-.05.072-.142.126-.275h.061z" fill="#29140e"/>
 <path d="m112.115,371.725c.274,0 .495.104.661.312 .142.179.212.383.212.614 0,.162-.039.326-.116.493s-.186.292-.322.376-.288.127-.456.127c-.273,0-.49-.109-.651-.327-.136-.184-.204-.39-.204-.617 0-.167.041-.332.124-.496 .082-.165.19-.286.325-.364 .134-.079.277-.118.427-.118zm-.061.129c-.069,0-.14.021-.211.062s-.127.114-.171.219c-.044.104-.065.238-.065.401 0,.265.053.492.157.684 .105.191.243.287.415.287 .128,0 .233-.053.316-.158s.125-.287.125-.545c0-.322-.069-.575-.208-.761-.094-.126-.213-.189-.358-.189z" fill="#29140e"/>
 <path d="m113.966,371.921v1.191c0,.169.019.276.055.321 .049.058.114.087.196.087h.164v.071h-1.083v-.071h.081c.054,0 .102-.013.146-.04s.073-.062.09-.106 .024-.132.024-.262v-1.191h-.353v-.143h.353v-.119c0-.181.029-.334.087-.459s.147-.228.267-.305 .254-.115.403-.115c.139,0 .266.045.382.135 .076.059.115.126.115.199 0,.04-.018.077-.052.112s-.071.053-.111.053c-.03,0-.062-.011-.096-.033s-.075-.068-.124-.141-.094-.12-.135-.146c-.041-.024-.086-.037-.137-.037-.061,0-.111.016-.154.048s-.072.083-.091.15-.027.244-.027.526v.131h.467v.143h-.467z" fill="#29140e"/>
 <path d="m116.324,371.054v1.055h.488c.112,0 .194-.024.247-.074s.087-.147.104-.294h.073v.909h-.073c-.001-.104-.015-.181-.04-.229s-.062-.086-.107-.11-.113-.036-.203-.036h-.488v.843c0,.137.008.227.025.27 .013.033.041.062.083.085 .059.032.119.048.183.048h.097v.073h-1.152v-.073h.095c.111,0 .191-.032.242-.097 .031-.043.047-.145.047-.306v-1.734c0-.136-.009-.226-.025-.27-.014-.032-.04-.062-.081-.085-.057-.031-.118-.048-.183-.048h-.095v-.073h1.998l.025.591h-.069c-.034-.126-.074-.218-.119-.276-.046-.059-.103-.102-.169-.128s-.17-.039-.31-.039h-.593z" fill="#29140e"/>
 <path d="m118.406,371.725v.408c.152-.272.308-.408.468-.408 .072,0 .133.022.18.066s.071.096.071.153c0,.052-.017.095-.051.131-.035.035-.076.054-.123.054s-.099-.023-.155-.068-.101-.068-.128-.068c-.023,0-.05.013-.077.039-.06.055-.121.144-.185.268v.869c0,.101.013.177.038.228 .017.036.047.065.091.09s.106.035.188.035v.071h-.929v-.071c.092,0 .161-.015.206-.044 .032-.021.056-.055.068-.101 .007-.022.011-.087.011-.192v-.703c0-.211-.005-.337-.014-.377s-.024-.069-.047-.088-.052-.027-.086-.027c-.041,0-.088.01-.139.029l-.021-.071 .549-.222h.085z" fill="#29140e"/>
 <path d="m120.254,373.331c-.186.145-.303.228-.351.25-.071.033-.147.05-.228.05-.125,0-.229-.043-.31-.129s-.122-.199-.122-.339c0-.089.02-.165.06-.229 .054-.09.148-.175.282-.254s.356-.176.668-.289v-.071c0-.181-.028-.305-.086-.372s-.141-.101-.251-.101c-.083,0-.148.022-.197.067-.051.045-.075.096-.075.154l.004.114c0,.061-.016.107-.047.141s-.071.05-.122.05-.089-.018-.119-.052-.047-.081-.047-.141c0-.113.058-.218.174-.312s.279-.143.489-.143c.161,0 .293.027.396.081 .078.041.135.105.172.192 .024.057.036.173.036.349v.615c0,.173.003.279.01.318s.018.064.032.078c.016.013.033.02.053.02s.04-.005.056-.014l.16-.145v.11c-.147.198-.289.297-.424.297-.064,0-.116-.022-.154-.066s-.058-.121-.059-.229zm0-.128v-.691c-.199.079-.328.135-.386.168-.104.059-.179.119-.224.183s-.067.133-.067.208c0,.095.028.174.085.236s.122.094.196.094c.1-.001.233-.067.396-.198z" fill="#29140e"/>
 <path d="m121.555,372.109c.213-.256.415-.384.608-.384 .099,0 .184.024.255.074s.128.131.171.244c.028.079.043.201.043.364v.774c0,.115.01.193.028.234 .014.032.037.059.07.077s.092.027.179.027v.071h-.896v-.071h.037c.085,0 .144-.013.178-.039s.057-.063.07-.113c.005-.02.008-.082.008-.187v-.742c0-.165-.021-.285-.064-.359s-.115-.112-.217-.112c-.157,0-.313.086-.47.258v.956c0,.123.008.199.021.228 .019.039.044.066.077.085s.098.026.196.026v.071h-.896v-.071h.039c.093,0 .155-.023.188-.07s.049-.137.049-.269v-.673c0-.218-.005-.351-.016-.398s-.024-.079-.045-.097-.048-.025-.082-.025c-.037,0-.082.01-.133.029l-.03-.071 .547-.222h.085v.385z" fill="#29140e"/>
 <path d="m124.595,372.903c-.049.239-.145.423-.287.552s-.3.193-.473.193c-.206,0-.386-.087-.539-.26s-.229-.406-.229-.701c0-.285.085-.517.254-.694s.374-.268.611-.268c.179,0 .325.047.439.142 .115.095.173.192.173.294 0,.05-.017.091-.049.122s-.078.046-.136.046c-.078,0-.137-.024-.176-.075-.022-.027-.038-.08-.045-.158s-.034-.137-.08-.178-.11-.06-.192-.06c-.132,0-.238.049-.318.146-.107.129-.161.3-.161.513 0,.217.054.407.16.573s.249.248.431.248c.129,0 .245-.044.349-.132 .072-.062.143-.171.211-.331l.057.028z" fill="#29140e"/>
 <path d="m125.159,372.461c-.001.27.064.48.196.634s.287.229.465.229c.119,0 .223-.032.311-.098s.161-.178.221-.336l.062.04c-.028.181-.108.346-.242.494s-.3.223-.501.223c-.218,0-.404-.085-.56-.255s-.232-.397-.232-.684c0-.311.08-.553.238-.726s.359-.261.6-.261c.203,0 .37.067.501.201s.196.312.196.537h-1.255zm0-.114h.84c-.007-.116-.021-.198-.042-.246-.033-.074-.082-.132-.147-.174-.065-.043-.134-.063-.205-.063-.109,0-.207.042-.294.128s-.137.203-.152.355z" fill="#29140e"/>
 <path d="m79.918,366.291-1.22-3.042v2.415c0,.223.021.361.062.416 .058.075.148.112.272.112h.112v.099h-1.1v-.099h.112c.133,0 .228-.046.283-.139 .034-.057.052-.187.052-.39v-2.362c0-.16-.016-.275-.047-.347-.021-.052-.062-.095-.12-.129-.058-.035-.151-.053-.28-.053v-.099h.895l1.146,2.83 1.127-2.83h.895v.099h-.109c-.136,0-.23.047-.287.139-.034.058-.051.188-.051.39v2.362c0,.223.021.361.065.416 .057.075.147.112.272.112h.109v.099h-1.342v-.099h.112c.135,0 .229-.046.284-.139 .034-.057.051-.187.051-.39v-2.415l-1.218,3.042h-.075z" fill="#29140e"/>
 <path d="m83.092,363.776v1.963c0,.152.01.255.029.305s.048.089.086.113c.038.025.107.038.209.038v.096h-1.037v-.096c.104,0 .174-.012.21-.035s.064-.062.085-.114 .031-.155.031-.307v-.941c0-.265-.007-.437-.021-.515-.011-.057-.028-.097-.052-.119s-.055-.033-.095-.033-.097.014-.159.04l-.032-.096 .643-.299h.103zm-.194-1.277c.065,0 .121.026.167.079s.068.116.068.19-.022.139-.068.192-.102.08-.167.08-.121-.027-.167-.08-.07-.118-.07-.192 .022-.139.068-.19 .103-.079.169-.079z" fill="#29140e"/>
 <path d="m84.415,362.499v3.24c0,.152.01.254.029.304s.049.088.089.113 .116.039.227.039v.096h-1.046v-.096c.098,0 .164-.012.2-.035s.063-.062.084-.114 .03-.155.03-.307v-2.219c0-.275-.006-.445-.017-.508s-.028-.106-.052-.13-.055-.034-.093-.034-.091.015-.153.043l-.04-.094 .636-.299h.106z" fill="#29140e"/>
 <path d="m85.74,362.499v3.24c0,.152.01.254.029.304s.049.088.089.113 .116.039.227.039v.096h-1.046v-.096c.098,0 .164-.012.2-.035s.063-.062.084-.114 .03-.155.03-.307v-2.219c0-.275-.006-.445-.017-.508s-.028-.106-.052-.13-.055-.034-.093-.034-.091.015-.153.043l-.04-.094 .636-.299h.106z" fill="#29140e"/>
 <path d="m86.69,364.768c-.002.362.075.647.23.854s.338.309.547.309c.14,0 .262-.044.364-.132s.19-.238.26-.452l.072.054c-.032.243-.127.465-.284.665s-.353.3-.589.3c-.256,0-.476-.113-.658-.342s-.273-.536-.273-.922c0-.418.094-.743.281-.978s.422-.351.704-.351c.239,0 .436.091.589.271s.23.421.23.724h-1.473zm0-.154h.987c-.008-.157-.024-.268-.049-.331-.039-.1-.097-.178-.174-.234s-.157-.086-.241-.086c-.129,0-.244.058-.346.172-.1.115-.16.274-.177.479zm1.111-2.03-.687.92h-.079l.244-.92h.522z" fill="#29140e"/>
 <path d="m89.826,363.776v.832h-.076c-.06-.262-.135-.439-.228-.533-.093-.095-.21-.142-.353-.142-.108,0-.196.033-.264.099s-.1.139-.1.219c0,.1.024.186.074.256s.146.15.294.232l.34.189c.314.176.473.407.473.695 0,.223-.073.401-.221.538s-.311.203-.492.203c-.13,0-.279-.026-.447-.079-.051-.019-.093-.027-.125-.027-.036,0-.064.023-.084.069h-.077v-.872h.077c.043.249.126.437.249.562s.26.189.412.189c.107,0 .194-.036.262-.107s.102-.159.102-.26c0-.123-.038-.227-.113-.31-.075-.084-.226-.189-.45-.317-.226-.128-.373-.243-.442-.347s-.105-.229-.105-.384c0-.201.061-.369.181-.504s.276-.203.467-.203c.084,0 .186.021.306.062 .079.026.132.04.158.04 .024,0 .044-.006.058-.019s.03-.04.05-.083h.074z" fill="#29140e"/>
 <path d="m91.04,363.776v1.963c0,.152.01.255.029.305s.048.089.086.113c.038.025.107.038.209.038v.096h-1.037v-.096c.104,0 .174-.012.21-.035s.064-.062.085-.114 .031-.155.031-.307v-.941c0-.265-.007-.437-.021-.515-.011-.057-.028-.097-.052-.119s-.055-.033-.095-.033-.097.014-.159.04l-.032-.096 .643-.299h.103zm-.193-1.277c.065,0 .121.026.167.079s.068.116.068.19-.022.139-.068.192-.102.08-.167.08-.121-.027-.167-.08-.07-.118-.07-.192 .022-.139.068-.19 .102-.079.169-.079z" fill="#29140e"/>
 <path d="m92.262,364.296c.155-.178.247-.28.275-.307 .069-.068.145-.12.226-.158s.16-.056.239-.056c.134,0 .249.045.345.134s.161.218.193.387c.16-.214.295-.354.405-.42s.224-.101.34-.101c.113,0 .214.033.302.101s.157.175.209.326c.034.104.051.265.051.485v1.051c0,.152.01.258.03.314 .016.039.044.072.086.1s.11.042.205.042v.096h-1.053v-.096h.045c.091,0 .163-.021.214-.062 .036-.028.062-.074.077-.136 .006-.03.009-.117.009-.259v-1.051c0-.199-.021-.34-.062-.421-.061-.114-.158-.171-.291-.171-.083,0-.165.023-.248.07s-.184.135-.302.263l-.005.029 .005.115v1.165c0,.167.008.271.024.312s.047.075.092.103 .122.042.23.042v.096h-1.078v-.096c.118,0 .199-.017.243-.048s.075-.08.093-.145c.008-.03.012-.118.012-.264v-1.051c0-.199-.026-.342-.077-.43-.068-.113-.164-.17-.286-.17-.084,0-.167.025-.25.077-.129.078-.228.166-.298.264v1.31c0,.16.01.264.029.312s.048.084.086.108 .115.036.231.036v.096h-1.055v-.096c.098,0 .166-.013.205-.036s.068-.062.089-.115 .03-.153.03-.305v-.934c0-.269-.007-.441-.021-.52-.011-.059-.027-.1-.051-.122s-.056-.033-.096-.033-.096.014-.156.04l-.034-.096 .643-.299h.1v.524z" fill="#29140e"/>
 <path d="m95.697,364.768c-.002.362.075.647.23.854s.338.309.547.309c.14,0 .262-.044.364-.132s.19-.238.26-.452l.072.054c-.032.243-.127.465-.284.665s-.353.3-.589.3c-.256,0-.476-.113-.658-.342s-.273-.536-.273-.922c0-.418.094-.743.281-.978s.422-.351.704-.351c.239,0 .436.091.589.271s.23.421.23.724h-1.473zm0-.154h.987c-.008-.157-.024-.268-.049-.331-.039-.1-.097-.178-.174-.234s-.157-.086-.241-.086c-.129,0-.244.058-.346.172-.101.115-.16.274-.177.479z" fill="#29140e"/>
 <path d="m99.057,363.03 .769-.43h.077v3.053c0,.203.007.329.022.379s.045.088.092.115 .141.041.284.045v.099h-1.188v-.099c.148-.004.245-.019.288-.044 .044-.025.074-.061.091-.104s.025-.173.025-.391v-1.951c0-.264-.008-.433-.022-.507-.012-.057-.031-.099-.06-.125s-.063-.04-.104-.04c-.058,0-.138.027-.24.082l-.034-.082z" fill="#29140e"/>
 <path d="m101.135,366.365v-.099c.201-.003.39-.057.563-.161s.342-.285.504-.545 .275-.545.339-.856c-.244.18-.465.27-.661.27-.223,0-.412-.098-.571-.295s-.237-.457-.237-.782c0-.316.079-.599.237-.846 .191-.3.44-.45.748-.45 .259,0 .481.123.666.368 .227.304.34.679.34,1.125 0,.401-.086.776-.259,1.124s-.412.636-.72.865c-.25.188-.522.282-.817.282h-.132zm1.443-1.859c.028-.23.042-.416.042-.555 0-.172-.025-.358-.077-.559s-.124-.353-.218-.46-.2-.16-.32-.16c-.138,0-.259.071-.363.214s-.155.354-.155.635c0,.375.068.668.207.88 .101.152.225.229.372.229 .071,0 .156-.02.254-.059s.184-.093.258-.165z" fill="#29140e"/>
 <path d="m103.52,366.365v-.099c.201-.003.39-.057.563-.161s.342-.285.504-.545 .275-.545.339-.856c-.244.18-.465.27-.661.27-.223,0-.412-.098-.571-.295s-.237-.457-.237-.782c0-.316.079-.599.237-.846 .191-.3.44-.45.748-.45 .259,0 .481.123.666.368 .227.304.34.679.34,1.125 0,.401-.086.776-.259,1.124s-.412.636-.72.865c-.25.188-.522.282-.817.282h-.132zm1.443-1.859c.028-.23.042-.416.042-.555 0-.172-.025-.358-.077-.559s-.124-.353-.218-.46-.2-.16-.32-.16c-.138,0-.259.071-.363.214s-.155.354-.155.635c0,.375.068.668.207.88 .101.152.225.229.372.229 .071,0 .156-.02.254-.059s.184-.093.258-.165z" fill="#29140e"/>
 <path d="m105.895,363.363c.09-.243.204-.432.341-.564s.309-.198.514-.198c.253,0 .447.094.582.282 .103.141.154.291.154.451 0,.263-.145.535-.434.815 .194.088.341.212.44.374s.148.352.148.57c0,.312-.087.584-.261.813-.227.299-.555.448-.984.448-.213,0-.357-.03-.435-.091s-.115-.126-.115-.195c0-.051.019-.097.055-.136s.08-.059.132-.059c.038,0 .078.007.118.021 .026.009.087.041.18.098s.157.089.193.1c.058.02.118.029.184.029 .158,0 .296-.07.413-.211s.176-.307.176-.498c0-.141-.026-.277-.081-.411-.04-.1-.085-.175-.133-.227-.066-.071-.158-.136-.274-.193s-.235-.087-.356-.087h-.074v-.08c.122-.018.245-.068.369-.151s.213-.185.269-.302 .084-.246.084-.387c0-.183-.05-.331-.15-.443s-.225-.17-.374-.17c-.24,0-.441.147-.603.443l-.078-.041z" fill="#29140e"/>
 <path d="m79.459,332.091v4.068h-.229c-.172-1.062-.492-1.875-.961-2.441-.469-.565-1-.848-1.594-.848-.496,0-.951.21-1.365.632s-.717.973-.908,1.653c-.246.871-.369,1.841-.369,2.908 0,1.051.09,2.008.27,2.87s.461,1.515.844,1.956 .879.663 1.488.663c.5,0 .958-.162 1.374-.485s.854-.88 1.315-1.671v1.013c-.445.688-.909,1.185-1.392,1.494s-1.046.463-1.69.463c-.848,0-1.601-.251-2.259-.753s-1.166-1.224-1.523-2.165-.536-1.941-.536-3.004c0-1.119.198-2.181.595-3.186s.932-1.783 1.605-2.337 1.39-.831 2.147-.831c.559,0 1.148.179 1.77.536 .359.208.588.312.686.312 .125,0 .233-.068.325-.204s.151-.351.179-.645h.228z" fill="#29140e"/>
 <path d="m83.396,338.454v3.636c0,.601.022.976.067,1.126s.133.281.264.394 .308.169.53.169h.264v.32h-4.154v-.32h.264c.23,0 .416-.061.557-.182 .102-.081.18-.22.234-.416 .043-.138.064-.502.064-1.091v-7.722c0-.6-.021-.975-.064-1.125s-.13-.281-.261-.394-.308-.169-.53-.169h-.264v-.32h4.154v.32h-.264c-.23,0-.416.061-.557.182-.102.081-.182.219-.24.415-.043.139-.064.502-.064,1.091v3.324h2.807v-3.324c0-.6-.021-.975-.064-1.125s-.131-.281-.264-.394-.311-.169-.533-.169h-.258v-.32h4.148v.32h-.258c-.234,0-.42.061-.557.182-.102.081-.182.219-.24.415-.043.139-.064.502-.064,1.091v7.722c0,.601.021.976.064,1.126s.131.281.264.394 .311.169.533.169h.258v.32h-4.148v-.32h.258c.234,0 .42-.061.557-.182 .102-.081.182-.22.24-.416 .043-.138.064-.502.064-1.091v-3.636h-2.807z" fill="#29140e"/>
 <path d="m94.441,340.756h-2.807l-.334,1.143c-.109.381-.164.696-.164.944 0,.328.09.571.27.727 .105.093.365.162.779.208v.32h-2.643v-.32c.285-.063.52-.238.703-.523s.41-.876.68-1.771l2.842-9.367h.111l2.865,9.627c.273.912.498,1.486.674,1.723 .133.179.32.283.562.312v.32h-3.844v-.32h.158c.309,0 .525-.063.65-.19 .086-.092.129-.225.129-.398 0-.104-.012-.21-.035-.32-.008-.052-.066-.269-.176-.649l-.42-1.466zm-.199-.64-1.184-4.042-1.219,4.042h2.403z" fill="#29140e"/>
 <path d="m103.834,340.099 2.156-7.739h3.234v.32h-.258c-.234,0-.422.061-.562.182-.098.081-.176.216-.234.406-.043.139-.064.5-.064,1.083v7.738c0,.601.021.976.064,1.126s.131.281.264.394 .311.169.533.169h.258v.32h-4.148v-.32h.258c.234,0 .422-.061.562-.182 .098-.081.176-.22.234-.416 .043-.138.064-.502.064-1.091v-8.699l-3.047,10.708h-.141l-3.094-10.631v8.268c0,.577.01.932.029,1.064 .051.289.161.524.331.706s.437.272.8.272v.32h-2.719v-.32h.082c.176.006.34-.036.492-.126s.268-.209.346-.358 .139-.361.182-.633c.008-.062.012-.357.012-.883v-7.427c0-.595-.021-.966-.064-1.113s-.131-.276-.264-.389-.311-.169-.533-.169h-.252v-.32h3.246l2.233,7.74z" fill="#29140e"/>
 <path d="m112.682,338.783v3.255c0,.635.026,1.035.079,1.199s.146.296.281.394 .382.147.741.147v.32h-4.037v-.32c.367,0 .616-.051.747-.151s.223-.232.275-.394 .079-.561.079-1.195v-7.618c0-.635-.026-1.034-.079-1.198-.053-.165-.146-.296-.278-.395s-.381-.146-.744-.146v-.32h3.463c1.141,0 1.959.3 2.455.9s.744,1.35.744,2.25c0,.762-.16,1.414-.48,1.957s-.762.912-1.324,1.107c-.379.138-1.02.208-1.922.208zm0-5.748v5.073c.129.012.227.017.293.017 .477,0 .844-.209 1.102-.627s.387-1.066.387-1.943c0-.872-.129-1.51-.387-1.913s-.643-.606-1.154-.606h-.241z" fill="#29140e"/>
 <path d="m120.873,340.756h-2.807l-.334,1.143c-.109.381-.164.696-.164.944 0,.328.09.571.27.727 .105.093.365.162.779.208v.32h-2.643v-.32c.285-.063.52-.238.703-.523s.41-.876.68-1.771l2.842-9.367h.111l2.865,9.627c.273.912.498,1.486.674,1.723 .133.179.32.283.562.312v.32h-3.844v-.32h.158c.309,0 .525-.063.65-.19 .086-.092.129-.225.129-.398 0-.104-.012-.21-.035-.32-.008-.052-.066-.269-.176-.649l-.42-1.466zm-.199-.64-1.184-4.042-1.219,4.042h2.403z" fill="#29140e"/>
 <path d="m132.826,332.091v4.138h-.217c-.262-1.131-.654-1.991-1.178-2.58s-1.096-.883-1.717-.883c-.594,0-1.088.247-1.482.74s-.674,1.182-.838,2.064-.246,1.789-.246,2.719c0,1.125.09,2.112.27,2.961s.47,1.472.87,1.869 .876.598 1.427.598c.191,0 .388-.03.589-.091s.407-.148.618-.264v-2.441c0-.462-.021-.761-.064-.896s-.132-.258-.267-.368-.298-.164-.489-.164h-.205v-.32h3.861v.32c-.293.029-.497.088-.612.178-.115.089-.204.238-.267.445-.035.11-.053.378-.053.806v2.441c-.508.334-1.036.587-1.585.757s-1.118.256-1.708.256c-.754,0-1.38-.151-1.878-.455s-.938-.701-1.318-1.194-.679-1.049-.894-1.666c-.273-.797-.41-1.688-.41-2.676 0-1.766.42-3.258 1.26-4.476s1.896-1.826 3.17-1.826c.395,0 .75.046 1.066.139 .172.046.45.178.835.394 .385.217.612.325.683.325 .109,0 .211-.06.305-.178s.18-.342.258-.671h.216z" fill="#29140e"/>
 <path d="m136.869,332.36 3.92,7.28v-5.047c0-.704-.068-1.181-.205-1.429-.188-.335-.502-.496-.943-.484v-.32h2.625v.32c-.336.063-.562.146-.677.246-.115.102-.205.266-.27.494-.064.228-.097.618-.097,1.173v9.773h-.199l-5.373-9.773v7.462c0,.675.104,1.131.313,1.368s.448.354.718.354h.188v.32h-2.818v-.32c.438-.006.742-.139.914-.398s.258-.701.258-1.324v-8.284l-.17-.312c-.168-.312-.316-.516-.445-.614s-.314-.152-.557-.164v-.32h2.818z" fill="#29140e"/>
 <path d="m145.816,333.035v4.778h.158c.504,0 .869-.233 1.096-.701s.371-1.157.434-2.068h.223v6.146h-.223c-.047-.67-.146-1.218-.296-1.646s-.325-.714-.524-.861-.488-.221-.867-.221v3.307c0,.646.019,1.042.056,1.187s.106.263.208.354 .266.139.492.139h.475c.742,0 1.337-.254 1.784-.762s.769-1.281.964-2.32h.217l-.357,3.731h-6.867v-.32h.264c.23,0 .416-.061.557-.182 .102-.081.18-.22.234-.416 .043-.138.064-.502.064-1.091v-7.722c0-.53-.01-.856-.029-.978-.039-.202-.111-.358-.217-.468-.148-.162-.352-.242-.609-.242h-.264v-.32h6.65v3.471h-.223c-.113-.848-.272-1.457-.478-1.826s-.495-.641-.87-.813c-.219-.104-.629-.156-1.23-.156h-.822z" fill="#29140e"/>
 <path d="m112.87,137.833 .533-1.292c.938.198 1.634.527 2.089.988s.683,1.046.683,1.754c0,.876-.39,1.597-1.169,2.161s-1.845.847-3.196.847c-1.43,0-2.54-.284-3.331-.851s-1.187-1.313-1.187-2.238c0-.808.311-1.464.932-1.968 .367-.3.895-.525 1.582-.675l.41,1.319c-.445.078-.797.241-1.055.489s-.387.548-.387.903c0,.489.229.886.686,1.191s1.197.457 2.221.457c1.086,0 1.859-.15 2.32-.45s.691-.69.691-1.171c0-.354-.146-.659-.439-.914s-.754-.439-1.383-.55z" fill="url(#b)"/>
 <path d="m116.03 135.39h-8.59v-1.333h3.381v-2.612h-3.381v-1.333h8.59v1.333h-3.756v2.612h3.756v1.333z" fill="url(#a)"/>
 <path d="m116.028,122.783v1.45l-1.951.576v2.639l1.951.545v1.414l-8.59-2.571v-1.41l8.59-2.643zm-3.398,2.455-3.188.91 3.188.892v-1.802z" fill="url(#a)"/>
 <path d="m116.03 122.09h-8.59v-1.995l5.859-1.198-5.859-1.185v-2h8.59v1.238h-6.762l6.762 1.311v1.284l-6.762 1.306h6.762v1.239z" fill="url(#a)"/>
 <path d="m116.028,114.394h-8.59v-2.139c0-.811.043-1.339.129-1.585 .129-.378.409-.695.841-.951s.989-.382 1.673-.382c.527,0 .971.073 1.33.22s.642.334.847.561 .341.457.407.691c.082.318.123.779.123,1.383v.869h3.24v1.333zm-7.136-1.333h2.438v-.729c0-.525-.045-.877-.135-1.054s-.23-.316-.422-.417-.414-.15-.668-.15c-.312,0-.57.07-.773.211s-.33.32-.381.536c-.039.159-.059.479-.059.959v.644z" fill="url(#a)"/>
 <path d="m116.028,102.973v1.45l-1.951.577v2.639l1.951.545v1.414l-8.59-2.571v-1.41l8.59-2.644zm-3.398,2.455-3.188.91 3.188.892v-1.802z" fill="url(#a)"/>
 <path d="m112.87,99.195h-1.447v-2.873h3.422c.352.279.661.684.929,1.213s.401,1.067.401,1.61c0,.691-.188,1.292-.565,1.806s-.916.899-1.617,1.157-1.464.387-2.288.387c-.895,0-1.689-.144-2.385-.432s-1.229-.71-1.6-1.266c-.285-.423-.428-.95-.428-1.581 0-.82.224-1.46.671-1.921s1.065-.757 1.854-.889l.322,1.324c-.422.093-.755.268-.999.525s-.366.577-.366.961c0,.583.24,1.045.721,1.389s1.193.516 2.139.516c1.02,0 1.784-.174 2.294-.522s.765-.804.765-1.369c0-.279-.071-.559-.214-.84s-.315-.522-.519-.723h-1.09v1.528z" fill="url(#b)"/>
 <path d="m116.03 95.079h-8.59v-1.297l5.736-2.702h-5.736v-1.238h8.59v1.337l-5.602 2.662h5.602v1.238z" fill="url(#a)"/>
 <path d="m116.03 88.432h-8.59v-4.895h1.453v3.562h1.904v-3.314h1.447v3.314h2.338v-3.688h1.447v5.021z" fill="url(#a)"/>
 <path d="m111.663,179.899c.31.151.673.238 1.069.238 .787,0 1.406-.438 1.729-.774 .573-.595 1.103-.953 1.862-.89 1.913-1.928 2.381-3.863 2.381-5.157 0-1.929-.609-2.974-.565-4.474 .026-.914.471-1.638.471-1.638-1.278-.868-1.727-1.834-1.727-1.834-1.063.887-1.656.504-2.944.504-1.792,0-2.276.971-2.276.971s-.485-.971-2.277-.971c-1.288,0-1.881.383-2.944-.504 0,0-.448.966-1.727,1.834 0,0 .444.724.471,1.638 .044,1.5-.565,2.544-.565,4.474 0,1.294.468,3.229 2.382,5.157 .759-.062 1.288.295 1.861.89 .323.336.942.774 1.729.774 .396,0 .76-.087 1.07-.238z" fill="url(#k)" stroke="#864819" stroke-width=".5"/>
 <path d="m98.849,184.767 1.181-3.725-1.896,2.087c-.174.192-.263.331-.264.416-.002.116.059.23.182.341l.11.101-.077.085-1.088-.988 .077-.085 .111.101c.132.12.262.165.39.135 .078-.018.197-.115.356-.29l1.854-2.041c.126-.138.201-.252.227-.341 .019-.064.013-.137-.018-.219s-.109-.182-.236-.297l.077-.085 .885.803-1.087,3.474 3.335-1.431 .885.804-.078.085-.107-.099c-.134-.121-.265-.167-.393-.138-.078.019-.197.115-.356.291l-1.854,2.041c-.175.192-.262.331-.263.418-.001.116.06.229.182.341l.108.099-.077.085-1.327-1.206 .078-.085 .11.101c.134.121.264.167.39.135 .078-.019.197-.115.356-.29l1.896-2.087-3.592,1.534-.077-.07z"/>
 <path d="m104.248,185.047-1.117,2c-.087.156-.134.266-.14.33s.006.122.036.172 .104.108.222.174l-.055.098-1.209-.675 .055-.098c.121.068.209.102.264.101s.11-.021.165-.062 .125-.138.211-.292l.536-.959c.15-.27.24-.449.269-.538 .02-.065.021-.116.008-.154s-.046-.07-.093-.096-.12-.049-.207-.062l.017-.119 .919.114 .119.066zm.501-1.427c.076.042.126.105.15.188s.014.163-.029.239-.105.126-.189.151-.163.015-.239-.027-.126-.106-.15-.19c-.023-.085-.015-.165.028-.241s.105-.126.188-.149c.083-.025.164-.014.241.029z"/>
 <path d="m106.649,184.508-1.418,3.505c-.066.166-.1.28-.097.344s.022.119.062.167 .126.1.263.155l-.042.104-1.296-.524 .042-.104c.122.049.209.07.264.063s.105-.035.154-.082 .105-.153.172-.317l.971-2.4c.121-.298.188-.484.202-.558s.012-.129-.008-.166-.053-.065-.099-.083-.12-.031-.209-.031l-.009-.121 .919-.004 .129.052z"/>
 <path d="m108.435,185.062-.966,3.656c-.045.172-.063.29-.053.353s.037.116.082.158c.045.043.138.083.28.121l-.028.108-1.352-.356 .029-.108c.126.033.216.043.269.029s.101-.047.143-.101 .086-.165.131-.335l.66-2.503c.083-.311.126-.504.131-.579s-.005-.129-.029-.164-.061-.058-.108-.071-.123-.015-.212-.004l-.022-.119 .91-.12 .135.035z"/>
 <path d="m109.352,187.951c-.047.42.02.762.2,1.023s.41.407.688.438c.186.02.353-.014.501-.101s.282-.25.401-.487l.089.072c-.073.278-.227.522-.46.731s-.507.298-.82.264c-.341-.037-.618-.201-.832-.492s-.297-.661-.248-1.108c.052-.484.217-.849.495-1.094s.604-.347.979-.306c.317.034.567.167.749.398s.254.522.216.873l-1.958-.211zm.019-.179 1.312.141c.009-.183.001-.312-.024-.391-.039-.121-.105-.22-.201-.297s-.198-.122-.31-.133c-.171-.019-.331.031-.48.15s-.249.295-.297.53zm1.73-2.196-1.027.969-.105-.011 .439-1.033 .693.075z"/>
 <path d="m113.82,186.895 .059.969-.103.006c-.098-.3-.211-.5-.341-.603s-.29-.147-.48-.136c-.145.009-.26.054-.344.136-.085.082-.124.169-.118.263 .007.116.046.213.117.292s.205.164.408.247l.467.193c.433.179.659.437.68.772 .016.259-.069.473-.256.644s-.4.263-.643.277c-.174.011-.374-.008-.602-.057-.07-.017-.126-.024-.17-.021-.048.003-.083.032-.107.087l-.102.006-.062-1.016 .103-.006c.076.286.2.498.372.635s.36.2.563.187c.144-.008.257-.058.342-.147s.124-.193.117-.311c-.009-.143-.066-.26-.173-.351s-.314-.202-.623-.333-.515-.253-.615-.368-.156-.259-.167-.439c-.014-.234.055-.435.205-.602s.354-.259.608-.274c.112-.007.249.009.412.046 .107.025.179.036.214.034 .033-.002.059-.011.076-.027 .018-.015.037-.049.06-.1l.103-.003z"/>
 <path d="m115.616,186.582 .458,2.244c.035.175.071.289.109.341s.083.088.139.106 .149.014.282-.013l.022.109-1.357.277-.022-.11c.137-.028.225-.06.267-.096s.069-.087.084-.154c.016-.066.005-.187-.03-.359l-.22-1.077c-.062-.303-.11-.497-.147-.583-.027-.062-.059-.103-.095-.122s-.08-.023-.133-.012c-.057.011-.123.041-.198.088l-.064-.101 .771-.513 .134-.025zm-.552-1.41c.086-.018.164-.002.236.045s.117.114.135.2 .002.165-.045.238-.114.119-.2.136-.164.002-.237-.047-.119-.115-.137-.201-.002-.164.046-.236 .116-.117.202-.135z"/>
 <path d="m117.492,186.746c.108-.273.173-.431.194-.475 .055-.109.122-.206.204-.289s.171-.146.268-.188c.164-.071.325-.085.484-.041s.298.147.417.311c.097-.313.197-.536.301-.666s.228-.226.37-.288 .278-.079.416-.054c.139.024.274.104.408.238 .09.092.186.256.288.492l.489,1.125c.071.164.132.271.184.321 .037.034.088.054.152.061s.154-.015.271-.065l.044.103-1.29.561-.044-.103 .054-.024c.112-.049.19-.108.234-.18 .03-.049.041-.112.03-.187-.006-.036-.042-.129-.108-.282l-.489-1.125c-.093-.213-.184-.352-.273-.417-.127-.089-.272-.099-.436-.027-.102.043-.191.113-.271.208s-.162.242-.247.442l.008.034 .06.121 .542,1.247c.077.179.136.286.175.321s.093.056.161.061c.067.005.168-.021.302-.079l.044.103-1.321.575-.045-.103c.146-.063.237-.124.276-.181s.055-.125.046-.203c-.005-.037-.041-.133-.108-.289l-.489-1.125c-.093-.213-.19-.353-.294-.418-.137-.085-.28-.095-.431-.03-.103.044-.192.116-.27.215-.121.152-.202.3-.242.441l.609,1.401c.074.171.135.277.181.318s.099.064.156.07 .158-.023.301-.085l.044.103-1.292.562-.045-.103c.12-.052.198-.101.234-.147s.055-.103.055-.17-.034-.181-.104-.343l-.435-.999c-.125-.288-.214-.469-.268-.545-.041-.057-.08-.091-.119-.103s-.083-.006-.133.015-.11.065-.173.126l-.087-.084 .648-.663 .123-.053 .241.559z"/>
 <path d="m121.618,182.137-.087,1.41-.085.064-.385-1.055 .557-.419zm.348,2.929c.253.339.534.543.845.61s.578.017.802-.151c.148-.112.248-.251.296-.416 .049-.165.035-.375-.04-.63l.115-.008c.136.253.19.536.163.849s-.166.564-.418.753c-.273.206-.588.276-.943.209s-.668-.28-.938-.639c-.294-.39-.422-.769-.387-1.137 .036-.368.204-.666.506-.893 .256-.192.528-.266.819-.221 .291.045.542.208.754.49l-1.574,1.184zm-.109-.144 1.054-.793c-.118-.14-.213-.229-.284-.269-.111-.062-.228-.088-.35-.079s-.229.046-.317.114c-.138.104-.221.25-.249.438s.02.385.146.589z"/>
 <path d="m124.385,183.056c.311.288.624.438.941.448s.571-.087.762-.294c.126-.137.198-.292.216-.462s-.033-.375-.153-.613l.111-.029c.18.225.284.493.314.805s-.062.584-.275.816c-.232.252-.528.377-.89.376s-.708-.154-1.039-.459c-.358-.33-.554-.68-.585-1.048s.08-.692.336-.97c.217-.235.472-.357.766-.365s.571.106.83.345l-1.334,1.45zm-.133-.122 .894-.971c-.141-.116-.25-.187-.328-.213-.12-.041-.24-.045-.358-.015s-.216.087-.291.169c-.117.127-.172.286-.165.476s.088.375.248.554z"/>
 <path d="m104.254,158.198 .639,1.288-.089.037c-.283-.347-.571-.562-.864-.645s-.594-.061-.902.068c-.259.107-.465.27-.619.488s-.231.496-.232.833 .088.719.266,1.146c.146.353.33.635.551.847s.473.339.757.383 .572.005.863-.116c.253-.105.454-.252.603-.44s.271-.492.37-.911l.113.021c-.052.428-.175.777-.368,1.046s-.47.478-.828.627c-.646.268-1.245.236-1.799-.095-.412-.247-.719-.611-.919-1.094-.162-.389-.223-.783-.184-1.181s.174-.75.405-1.057 .527-.534.89-.685c.282-.117.588-.164.92-.139 .098.009.164.006.198-.008 .052-.021.089-.059.112-.111 .028-.072.034-.159.017-.26l.1-.042z"/>
 <path d="m109.119,158.643 .288,1.703c.055.326.096.523.124.593s.061.116.099.139 .081.031.126.023c.063-.01.132-.04.206-.088l.061.1-.782.489-.138.023-.101-.595c-.197.303-.354.499-.469.587-.116.089-.244.146-.385.169-.158.026-.303.004-.434-.067s-.23-.175-.3-.311-.126-.334-.17-.596l-.213-1.255c-.022-.133-.052-.223-.089-.269s-.087-.078-.147-.096-.165-.014-.312.013l-.019-.114 .984-.167 .318,1.881c.044.262.119.426.224.492s.222.089.351.067c.088-.015.184-.059.285-.133s.217-.202.344-.383l-.269-1.592c-.027-.16-.074-.263-.143-.309s-.194-.056-.379-.029l-.02-.113 .96-.162z"/>
 <path d="m110.867,158.48 1.341.038-.003.115-.088-.002c-.08-.002-.143.016-.187.054s-.066.091-.068.157 .018.16.059.26l.618,1.593 .712-1.615c.051-.115.077-.202.079-.262 0-.029-.007-.053-.023-.072-.021-.032-.05-.054-.085-.066s-.106-.02-.214-.023l.003-.115 .93.026-.003.115c-.108.005-.184.025-.226.059-.074.06-.143.162-.205.306l-1.079,2.417-.128-.004-.95-2.433c-.042-.113-.083-.195-.124-.245s-.092-.092-.154-.127c-.035-.02-.104-.039-.207-.059l.002-.117z"/>
 <path d="m115.606,159.919c-.092.413-.062.759.089,1.039s.363.449.637.509c.183.04.353.024.509-.046s.308-.218.452-.441l.081.082c-.104.268-.282.494-.537.677s-.536.241-.844.174c-.335-.073-.593-.266-.773-.578s-.224-.689-.128-1.129c.104-.476.308-.821.61-1.034s.638-.279 1.007-.199c.312.068.546.228.702.477s.195.546.12.891l-1.925-.422zm.04-.176 1.289.282c.028-.18.035-.311.019-.391-.026-.125-.082-.23-.168-.317s-.185-.142-.294-.166c-.168-.037-.333-.004-.494.098s-.279.266-.352.494zm1.956-1.996-1.126.853-.104-.023 .548-.979 .682.149z"/>
 <path d="m119.247,160.928c-.165.39-.198.736-.1,1.038s.277.507.536.615c.173.072.342.087.509.045s.342-.159.523-.353l.065.094c-.149.246-.366.436-.649.571s-.57.141-.861.02c-.316-.132-.535-.368-.658-.708s-.097-.718.077-1.133c.188-.45.449-.753.785-.908s.678-.161 1.026-.016c.295.123.496.321.604.595s.096.573-.04.898l-1.817-.758zm.069-.167 1.218.508c.061-.172.09-.299.088-.381-.003-.127-.039-.241-.108-.342s-.155-.173-.259-.216c-.159-.066-.327-.064-.504.007s-.322.213-.435.424z"/>
 <path d="m113.37,172.043v.165l.077.013c.204.033.351.089.436.167s.13.162.13.248c0,.134-.069.374-.209.719l-1.428,3.503-1.349-3.106c.108-.046.226-.077.323-.137 .404-.25.758-.644 1.061-1.183l-.137-.089c-.36.5-.69.834-.991,1.002-.114.063-.242.104-.37.144l-.077-.179c-.137-.315-.205-.547-.205-.696 0-.107.042-.195.124-.264s.266-.116.545-.143v-.165h-2.473v.165c.186.015.332.048.44.1s.2.124.274.217c.047.059.128.223.246.491l.24.554c-.363-.03-.698-.117-.992-.294-.353-.214-.616-.522-.791-.924s-.265-.876-.265-1.424c0-.664.094-1.218.279-1.665s.441-.771.766-.975c.323-.204.687-.306 1.089-.306 .479,0 .89.135 1.231.406s.605.714.79,1.33h.139l-.139-2.057h-.156c-.033.143-.088.254-.164.335-.061.057-.131.084-.211.084-.054,0-.143-.032-.268-.098-.426-.214-.857-.321-1.294-.321-.562,0-1.082.139-1.556.417s-.847.67-1.117,1.176-.406,1.061-.406,1.665c0,.75.205,1.401.615,1.955 .551.744 1.327,1.116 2.33,1.116 .102,0 .189-.026.286-.035l1.859,4.278h.164l2.11-5.15c.123-.3.263-.523.421-.669 .109-.098.271-.166.485-.205v-.165h-1.862z" fill="#fff"/>
</svg>
